<?xml version="1.0" encoding="UTF-8"?>
<svg width="454px" height="100px" viewBox="0 0 454 100" version="1.1" xmlns="http://www.w3.org/2000/svg" xmlns:xlink="http://www.w3.org/1999/xlink">
    <!-- Generator: Sketch 53.2 (72643) - https://sketchapp.com -->
    <title>Group 2</title>
    <desc>Created with Sketch.</desc>
    <g id="Page-1" stroke="none" stroke-width="1" fill="none" fill-rule="evenodd">
        <g id="Group-2" fill="#000000" fill-rule="nonzero">
            <path d="M210.509235,83.7730871 L195.007916,22.1635884 L195.007916,88.9182058 C195.007916,92.6121557 194.183386,95.3825765 192.534301,97.2295515 C190.885216,99.0765264 188.697463,100 185.970976,100 C183.332441,100 181.177669,99.0875201 179.506596,97.262533 C177.835524,95.4375458 177,92.6561313 177,88.9182058 L177,12.4010554 C177,8.17939842 178.099373,5.33202144 180.298153,3.85883905 C182.496933,2.38565666 185.465241,1.64907652 189.203166,1.64907652 L195.271768,1.64907652 C198.921742,1.64907652 201.571232,1.97888852 203.220317,2.63852243 C204.869401,3.29815633 206.089706,4.48547955 206.881266,6.2005277 C207.672827,7.91557586 208.574313,10.7079842 209.585752,14.5778364 L223.635884,67.5461741 L237.686016,14.5778364 C238.697454,10.7079842 239.598941,7.91557586 240.390501,6.2005277 C241.182062,4.48547955 242.402366,3.29815633 244.051451,2.63852243 C245.700536,1.97888852 248.350026,1.64907652 252,1.64907652 L258.068602,1.64907652 C261.806527,1.64907652 264.774835,2.38565666 266.973615,3.85883905 C269.172394,5.33202144 270.271768,8.17939842 270.271768,12.4010554 L270.271768,88.9182058 C270.271768,92.6121557 269.447238,95.3825765 267.798153,97.2295515 C266.149068,99.0765264 263.939328,100 261.168865,100 C258.574305,100 256.441521,99.0765264 254.770449,97.2295515 C253.099376,95.3825765 252.263852,92.6121557 252.263852,88.9182058 L252.263852,22.1635884 L236.762533,83.7730871 C235.751094,87.7748661 234.926564,90.7101929 234.288918,92.5791557 C233.651272,94.4481184 232.474943,96.1521471 230.759894,97.6912929 C229.044846,99.2304387 226.6702,100 223.635884,100 C221.349153,100 219.414256,99.505282 217.831135,98.5158311 C216.248013,97.5263803 215.016715,96.2621009 214.137203,94.7229551 C213.257691,93.1838094 212.565086,91.4797807 212.059367,89.6108179 C211.553647,87.7418552 211.036942,85.7959644 210.509235,83.7730871 Z M291.182058,88.060686 L291.182058,11.8733509 C291.182058,7.91554749 292.083544,4.94723945 293.886544,2.96833773 C295.689543,0.989436016 298.020214,0 300.878628,0 C303.824993,0 306.210633,0.978442282 308.03562,2.9353562 C309.860607,4.89227012 310.773087,7.8715719 310.773087,11.8733509 L310.773087,88.060686 C310.773087,92.062465 309.860607,95.0527606 308.03562,97.0316623 C306.210633,99.010564 303.824993,100 300.878628,100 C298.06419,100 295.744512,98.9995703 293.919525,96.9986807 C292.094538,94.9977912 291.182058,92.0184894 291.182058,88.060686 Z M344.810026,1.64907652 L370.337731,1.64907652 C376.978046,1.64907652 382.672799,2.26472559 387.422164,3.49604222 C392.171528,4.72735884 396.481071,7.03604288 400.350923,10.4221636 C410.421334,19.0413799 415.456464,32.1459103 415.456464,49.7361478 C415.456464,55.5409261 414.950753,60.8399057 413.939314,65.6332454 C412.927875,70.4265851 411.366765,74.7471224 409.255937,78.5949868 C407.145108,82.4428513 404.44065,85.8838898 401.14248,88.9182058 C398.54792,91.2489123 395.711537,93.117847 392.633245,94.525066 C389.554954,95.932285 386.24584,96.921721 382.705805,97.4934037 C379.165769,98.0650864 375.175044,98.3509235 370.733509,98.3509235 L345.205805,98.3509235 C341.643782,98.3509235 338.961311,97.8122305 337.158311,96.7348285 C335.355312,95.6574265 334.178983,94.1402912 333.629288,92.1833773 C333.079593,90.2264634 332.804749,87.6869109 332.804749,84.5646438 L332.804749,13.6543536 C332.804749,9.43269657 333.75021,6.37643865 335.641161,4.48548813 C337.532111,2.5945376 340.588369,1.64907652 344.810026,1.64907652 Z M352.395778,17.1503958 L352.395778,82.7836412 L367.237467,82.7836412 C370.491661,82.7836412 373.042207,82.6956913 374.889182,82.5197889 C376.736157,82.3438865 378.649067,81.9041372 380.627968,81.2005277 C382.60687,80.4969182 384.321892,79.5074822 385.773087,78.23219 C392.325451,72.6912652 395.601583,63.1487045 395.601583,49.6042216 C395.601583,40.0615178 394.161404,32.915591 391.281003,28.1662269 C388.400601,23.4168628 384.849625,20.3935861 380.627968,19.0963061 C376.406311,17.7990261 371.305219,17.1503958 365.324538,17.1503958 L352.395778,17.1503958 Z M433.46438,88.060686 L433.46438,11.8733509 C433.46438,7.91554749 434.365866,4.94723945 436.168865,2.96833773 C437.971865,0.989436016 440.302536,0 443.16095,0 C446.107315,0 448.492955,0.978442282 450.317942,2.9353562 C452.142929,4.89227012 453.055409,7.8715719 453.055409,11.8733509 L453.055409,88.060686 C453.055409,92.062465 452.142929,95.0527606 450.317942,97.0316623 C448.492955,99.010564 446.107315,100 443.16095,100 C440.346512,100 438.026834,98.9995703 436.201847,96.9986807 C434.37686,94.9977912 433.46438,92.0184894 433.46438,88.060686 Z" id="MIDI"></path>
            <path d="M63.9167862,1.14777618 C63.9167862,5.16501291 63.9048303,9.86367468 63.8809182,15.2439024 C63.8570061,20.6241302 63.8450502,24.8684684 63.8450502,27.9770445 C63.8450502,30.8464993 63.8570061,34.2658816 63.8809182,38.2352941 C63.9048303,42.2047066 63.9167862,47.1783537 63.9167862,53.1563845 C63.9167862,61.3343307 62.5418598,68.2926542 59.7919656,74.0315638 C57.0420714,79.7704735 53.1564096,84.4332676 48.1348637,88.0200861 C43.161142,91.5590803 37.266892,94.2730656 30.4519369,96.1621234 C23.6369817,98.0511811 16.188467,99.3304605 8.1061693,100 L-1.42108547e-14,69.3687231 C2.34338809,69.1296019 4.94977044,68.6872342 7.81922525,68.0416069 C10.6886801,67.3959796 13.2950624,66.3797296 15.6384505,64.9928264 C18.3644326,63.2711535 20.5404032,61.0114918 22.1664275,58.2137733 C23.7924519,55.4160549 24.6054519,51.6021284 24.6054519,46.7718795 C24.6054519,44.6197884 24.6174078,41.9058031 24.6413199,38.6298422 C24.6652321,35.3538813 24.6771879,31.3486607 24.6771879,26.6140603 C24.6771879,22.309878 24.6532762,18.0177163 24.6054519,13.7374462 C24.5576277,9.45717611 24.5337159,5.26066141 24.5337159,1.14777618 L63.9167862,1.14777618 Z M161.047346,67.7905308 C161.047346,73.5294405 159.385478,78.3715728 156.061693,82.3170732 C152.737908,86.2625735 148.206628,89.5743529 142.467719,92.2525108 C137.541821,94.5480746 131.061733,96.2099423 123.02726,97.2381636 C114.992786,98.2663849 107.508404,98.7804878 100.573888,98.7804878 C94.2132633,98.7804878 89.060278,98.7087525 85.1147776,98.5652798 C81.1692773,98.421807 78.2161743,98.3022482 76.2553802,98.2065997 L71.8794835,67.1449067 C72.4055502,67.192731 75.0478002,67.288378 79.8063128,67.4318508 C84.5648253,67.5753235 87.6853106,67.6470588 89.1678623,67.6470588 L95.7675753,67.6470588 C98.2544362,67.6470588 100.669524,67.5753235 103.012912,67.4318508 C106.217137,67.1927296 108.249637,66.7264501 109.110473,66.0329986 C109.97131,65.339547 110.401722,64.5624146 110.401722,63.7015782 C110.401722,62.6494448 109.851751,61.7886212 108.751793,61.1190818 C107.651836,60.4495423 105.595424,59.5408953 102.582496,58.3931133 C100.956472,57.7713981 98.5294279,56.7790599 95.3012912,55.4160689 C92.0731546,54.0530778 89.5265516,52.7977102 87.661406,51.6499283 C83.2615753,48.9717704 80.0813106,45.8512852 78.1205165,42.2883788 C76.1597224,38.7254724 75.17934,34.7919871 75.17934,30.4878049 C75.17934,27.7618228 75.6814871,25.1195728 76.6857963,22.5609756 C77.6901055,20.0023784 79.0769878,17.8144519 80.8464849,15.9971306 C85.5810854,11.0234089 92.5633207,7.11383537 101.7934,4.26829268 C111.02348,1.42275 122.333745,0 135.724534,0 C141.606916,0 146.054504,0.0478235294 149.067432,0.143472023 C152.080359,0.239120516 154.208506,0.334767575 155.451937,0.430416069 L159.756098,31.492109 C157.556182,31.3964605 155.463903,31.3008135 153.479197,31.205165 C151.49449,31.1095165 149.019623,31.061693 146.054519,31.061693 C143.376362,31.061693 141.044964,31.0975606 139.060258,31.169297 C137.075552,31.2410334 134.887626,31.3486363 132.496413,31.492109 C130.200849,31.6355818 128.503114,31.9583906 127.403156,32.4605452 C126.303199,32.9626998 125.753228,33.6920086 125.753228,34.6484935 C125.753228,35.7484512 126.38689,36.6570983 127.654232,37.374462 C128.921575,38.0918257 130.870384,38.976561 133.500717,40.0286944 C136.035402,41.0330036 138.582005,42.0492536 141.140603,43.0774749 C143.6992,44.1056962 146.197979,45.3371521 148.637016,46.7718795 C152.845549,49.3065646 155.966035,52.2955352 157.998565,55.7388809 C160.031096,59.1822267 161.047346,63.1994032 161.047346,67.7905308 Z" id="JS"></path>
        </g>
    </g>
</svg>