<?xml version="1.0" encoding="UTF-8"?>
<svg width="182px" height="40px" viewBox="0 0 182 40" version="1.1" xmlns="http://www.w3.org/2000/svg" xmlns:xlink="http://www.w3.org/1999/xlink">
    <!-- Generator: Sketch 53.2 (72643) - https://sketchapp.com -->
    <title>Group 3 Copy</title>
    <desc>Created with Sketch.</desc>
    <g id="Page-1" stroke="none" stroke-width="1" fill="none" fill-rule="evenodd">
        <g id="Group-3-Copy" fill="#9DA5B4" fill-rule="nonzero">
            <path d="M84.2036939,33.5092348 L78.0031662,8.86543536 L78.0031662,35.5672823 C78.0031662,37.0448623 77.6733542,38.1530306 77.0137203,38.8918206 C76.3540864,39.6306106 75.4789852,40 74.3883905,40 C73.3329763,40 72.4710675,39.635008 71.8026385,38.9050132 C71.1342095,38.1750183 70.8,37.0624525 70.8,35.5672823 L70.8,4.96042216 C70.8,3.27175937 71.2397493,2.13280858 72.1192612,1.54353562 C72.9987731,0.954262665 74.1860963,0.659630607 75.6812665,0.659630607 L78.1087071,0.659630607 C79.5686968,0.659630607 80.6284927,0.791555409 81.2881266,1.05540897 C81.9477606,1.31926253 82.4358823,1.79419182 82.7525066,2.48021108 C83.0691309,3.16623034 83.4297253,4.28319367 83.8343008,5.83113456 L89.4543536,27.0184697 L95.0744063,5.83113456 C95.4789818,4.28319367 95.8395763,3.16623034 96.1562005,2.48021108 C96.4728248,1.79419182 96.9609466,1.31926253 97.6205805,1.05540897 C98.2802144,0.791555409 99.3400103,0.659630607 100.8,0.659630607 L103.227441,0.659630607 C104.722611,0.659630607 105.909934,0.954262665 106.789446,1.54353562 C107.668958,2.13280858 108.108707,3.27175937 108.108707,4.96042216 L108.108707,35.5672823 C108.108707,37.0448623 107.778895,38.1530306 107.119261,38.8918206 C106.459627,39.6306106 105.575731,40 104.467546,40 C103.429722,40 102.576608,39.6306106 101.908179,38.8918206 C101.23975,38.1530306 100.905541,37.0448623 100.905541,35.5672823 L100.905541,8.86543536 L94.7050132,33.5092348 C94.3004377,35.1099464 93.9706257,36.2840772 93.7155673,37.0316623 C93.4605088,37.7792474 92.989977,38.4608588 92.3039578,39.0765172 C91.6179385,39.6921755 90.6680799,40 89.4543536,40 C88.5396612,40 87.7657024,39.8021128 87.1324538,39.4063325 C86.4992053,39.0105521 86.006686,38.5048404 85.6548813,37.8891821 C85.3030765,37.2735237 85.0260344,36.5919123 84.8237467,35.8443272 C84.621459,35.0967421 84.4147768,34.3183858 84.2036939,33.5092348 Z M116.472823,35.2242744 L116.472823,4.74934037 C116.472823,3.166219 116.833418,1.97889578 117.554617,1.18733509 C118.275817,0.395774406 119.208086,0 120.351451,0 C121.529997,0 122.484253,0.391376913 123.214248,1.17414248 C123.944243,1.95690805 124.309235,3.14862876 124.309235,4.74934037 L124.309235,35.2242744 C124.309235,36.824986 123.944243,38.0211042 123.214248,38.8126649 C122.484253,39.6042256 121.529997,40 120.351451,40 C119.225676,40 118.297805,39.5998281 117.56781,38.7994723 C116.837815,37.9991165 116.472823,36.8073958 116.472823,35.2242744 Z M137.924011,0.659630607 L148.135092,0.659630607 C150.791218,0.659630607 153.06912,0.905890237 154.968865,1.39841689 C156.868611,1.89094354 158.592428,2.81441715 160.140369,4.16886544 C164.168534,7.61655198 166.182586,12.8583641 166.182586,19.8944591 C166.182586,22.2163704 165.980301,24.3359623 165.575726,26.2532982 C165.17115,28.170634 164.546706,29.8988489 163.702375,31.4379947 C162.858043,32.9771405 161.77626,34.3535559 160.456992,35.5672823 C159.419168,36.4995649 158.284615,37.2471388 157.053298,37.8100264 C155.821982,38.372914 154.498336,38.7686884 153.082322,38.9973615 C151.666308,39.2260346 150.070018,39.3403694 148.293404,39.3403694 L138.082322,39.3403694 C136.657513,39.3403694 135.584524,39.1248922 134.863325,38.6939314 C134.142125,38.2629706 133.671593,37.6561165 133.451715,36.8733509 C133.231837,36.0905854 133.1219,35.0747644 133.1219,33.8258575 L133.1219,5.46174142 C133.1219,3.77307863 133.500084,2.55057546 134.256464,1.79419525 C135.012845,1.03781504 136.235348,0.659630607 137.924011,0.659630607 Z M140.958311,6.86015831 L140.958311,33.1134565 L146.894987,33.1134565 C148.196664,33.1134565 149.216883,33.0782765 149.955673,33.0079156 C150.694463,32.9375546 151.459627,32.7616549 152.251187,32.4802111 C153.042748,32.1987673 153.728757,31.8029929 154.309235,31.292876 C156.93018,29.0765061 158.240633,25.2594818 158.240633,19.8416887 C158.240633,16.0246071 157.664562,13.1662364 156.512401,11.2664908 C155.360241,9.36674512 153.93985,8.15743443 152.251187,7.63852243 C150.562525,7.11961042 148.522088,6.86015831 146.129815,6.86015831 L140.958311,6.86015831 Z M173.385752,35.2242744 L173.385752,4.74934037 C173.385752,3.166219 173.746346,1.97889578 174.467546,1.18733509 C175.188746,0.395774406 176.121015,0 177.26438,0 C178.442926,0 179.397182,0.391376913 180.127177,1.17414248 C180.857172,1.95690805 181.222164,3.14862876 181.222164,4.74934037 L181.222164,35.2242744 C181.222164,36.824986 180.857172,38.0211042 180.127177,38.8126649 C179.397182,39.6042256 178.442926,40 177.26438,40 C176.138605,40 175.210734,39.5998281 174.480739,38.7994723 C173.750744,37.9991165 173.385752,36.8073958 173.385752,35.2242744 Z" id="MIDI"></path>
            <path d="M25.5667145,0.459110473 C25.5667145,2.06600516 25.5619321,3.94546987 25.5523673,6.09756098 C25.5428024,8.24965208 25.5380201,9.94738737 25.5380201,11.1908178 C25.5380201,12.3385997 25.5428024,13.7063527 25.5523673,15.2941176 C25.5619321,16.8818826 25.5667145,18.8713415 25.5667145,21.2625538 C25.5667145,24.5337323 25.0167439,27.3170617 23.9167862,29.6126255 C22.8168286,31.9081894 21.2625638,33.773307 19.2539455,35.2080344 C17.2644568,36.6236321 14.9067568,37.7092263 12.1807747,38.4648494 C9.45479268,39.2204725 6.4753868,39.7321842 3.24246772,40 L-1.42108547e-14,27.7474892 C0.937355237,27.6518407 1.97990818,27.4748937 3.1276901,27.2166428 C4.27547202,26.9583918 5.31802496,26.5518918 6.2553802,25.9971306 C7.34577303,25.3084614 8.21616126,24.4045967 8.86657102,23.2855093 C9.51698077,22.166422 9.84218077,20.6408514 9.84218077,18.7087518 C9.84218077,17.8479154 9.84696313,16.7623212 9.85652798,15.4519369 C9.86609283,14.1415525 9.87087518,12.5394643 9.87087518,10.6456241 C9.87087518,8.92395122 9.86131047,7.20708651 9.84218077,5.49497848 C9.82305108,3.78287044 9.81348637,2.10426456 9.81348637,0.459110473 L25.5667145,0.459110473 Z M64.4189383,27.1162123 C64.4189383,29.4117762 63.7541912,31.3486291 62.4246772,32.9268293 C61.0951631,34.5050294 59.2826514,35.8297412 56.9870875,36.9010043 C55.0167286,37.8192298 52.4246933,38.4839769 49.2109039,38.8952654 C45.9971145,39.3065539 43.0033615,39.5121951 40.2295552,39.5121951 C37.6853053,39.5121951 35.6241112,39.483501 34.045911,39.4261119 C32.4677109,39.3687228 31.2864697,39.3208993 30.5021521,39.2826399 L28.7517934,26.8579627 C28.9622201,26.8770924 30.0191201,26.9153512 31.9225251,26.9727403 C33.8259301,27.0301294 35.0741242,27.0588235 35.6671449,27.0588235 L38.3070301,27.0588235 C39.3017745,27.0588235 40.2678098,27.0301294 41.205165,26.9727403 C42.4868548,26.8770918 43.2998548,26.6905801 43.6441894,26.4131994 C43.988524,26.1358188 44.1606887,25.8249659 44.1606887,25.4806313 C44.1606887,25.0597779 43.9407004,24.7154485 43.5007174,24.4476327 C43.0607343,24.1798169 42.2381696,23.8163581 41.0329986,23.3572453 C40.3825888,23.1085593 39.4117712,22.711624 38.1205165,22.1664275 C36.8292618,21.6212311 35.8106207,21.1190841 35.0645624,20.6599713 C33.3046301,19.5887082 32.0325242,18.3405141 31.2482066,16.9153515 C30.463889,15.490189 30.071736,13.9167948 30.071736,12.195122 C30.071736,11.1047291 30.2725948,10.0478291 30.6743185,9.02439024 C31.0760422,8.00095136 31.6307951,7.12578077 32.338594,6.39885222 C34.2324341,4.40936356 37.0253283,2.84553415 40.7173601,1.70731707 C44.409392,0.5691 48.9334978,0 54.2898135,0 C56.6427664,0 58.4218017,0.0191294118 59.6269727,0.0573888092 C60.8321438,0.0956482066 61.6834026,0.13390703 62.1807747,0.172166428 L63.902439,12.5968436 C63.0224729,12.5585842 62.1855611,12.5203254 61.3916786,12.482066 C60.5977961,12.4438066 59.6078491,12.4246772 58.4218077,12.4246772 C57.3505446,12.4246772 56.4179858,12.4390242 55.6241033,12.4677188 C54.8302208,12.4964133 53.9550502,12.5394545 52.9985653,12.5968436 C52.0803397,12.6542327 51.4012456,12.7833562 50.9612626,12.9842181 C50.5212795,13.1850799 50.3012912,13.4768034 50.3012912,13.8593974 C50.3012912,14.2993805 50.554756,14.6628393 51.061693,14.9497848 C51.56863,15.2367303 52.3481535,15.5906244 53.4002869,16.0114778 C54.414161,16.4132014 55.4328022,16.8197014 56.456241,17.23099 C57.4796799,17.6422785 58.4791917,18.1348608 59.4548063,18.7087518 C61.1382198,19.7226258 62.3864139,20.9182141 63.1994261,22.2955524 C64.0124383,23.6728907 64.4189383,25.2797613 64.4189383,27.1162123 Z" id="JS"></path>
        </g>
    </g>
</svg>